<?xml version="1.0" encoding="utf-8"?>
<!-- Generator: Adobe Illustrator 17.0.0, SVG Export Plug-In . SVG Version: 6.00 Build 0)  -->
<!DOCTYPE svg PUBLIC "-//W3C//DTD SVG 1.1//EN" "http://www.w3.org/Graphics/SVG/1.1/DTD/svg11.dtd">
<svg version="1.1" id="Layer_1" xmlns="http://www.w3.org/2000/svg" xmlns:xlink="http://www.w3.org/1999/xlink" x="0px" y="0px"
	 width="100%" height="100%" viewBox="0 0 90.1 99.4" style="enable-background:new 0 0 90.1 99.4;" xml:space="preserve">
<g style="display:none;">
	<path style="display:inline;fill:#232323;" d="M12.8,29.2"/>
	<path style="display:inline;fill:#FFFFFF;stroke:#000000;stroke-width:3;stroke-miterlimit:10;" d="M78.1,29.4
		c-11.3-8.6-26.6-0.5-32.6,7.1c-6.5-8.1-21.3-16.2-32.6-7.3C2.3,38.8,0.2,55.7,2.6,66.9c5.9,26.9,33.3,31,43.3,31
		c26.4,0,41.5-16.4,42.6-35.1C89.3,49.1,86.3,36,78.1,29.4z"/>
</g>
<g>
	<g>
		<path d="M60.7,49.3c0,8.7,0,17.4,0,26.1c0,1.9,3,1.9,3,0c0-8.7,0-17.4,0-26.1C63.7,47.4,60.7,47.4,60.7,49.3L60.7,49.3z"/>
	</g>
</g>
<g>
	<g>
		<path d="M27.8,49.3c0,8.7,0,17.4,0,26.1c0,1.9,3,1.9,3,0c0-8.7,0-17.4,0-26.1C30.8,47.4,27.8,47.4,27.8,49.3L27.8,49.3z"/>
	</g>
</g>
<g style="display:none;">
	<g style="display:inline;">
		<path style="fill:#F26B1D;" d="M83.6,40.2c-0.1,12-5.7,23.1-15.2,30.4c-9.5,7.2-22,9.3-33.4,6.1C23.7,73.5,14.5,64.8,10.2,54
			c-4.4-11.1-3-23.8,3.2-33.9C22.2,5.7,40.1-0.8,56.2,3.7C72.4,8.3,83.4,23.6,83.6,40.2c0,0.6,1,0.6,1,0C84.4,18,65.7,0.3,43.5,1.3
			C21.3,2.3,4.7,22.6,6.8,44.4c2,20.5,20.5,35.7,40.9,34.8c20.6-0.9,36.7-18.6,36.9-38.9C84.6,39.6,83.6,39.6,83.6,40.2z"/>
	</g>
</g>
</svg>
