<?xml version="1.0" encoding="utf-8"?>
<!-- Generator: Adobe Illustrator 17.0.0, SVG Export Plug-In . SVG Version: 6.00 Build 0)  -->
<!DOCTYPE svg PUBLIC "-//W3C//DTD SVG 1.1//EN" "http://www.w3.org/Graphics/SVG/1.1/DTD/svg11.dtd">
<svg version="1.1" id="Layer_1" xmlns="http://www.w3.org/2000/svg" xmlns:xlink="http://www.w3.org/1999/xlink" x="0px" y="0px"
	 width="90.1px" height="99.4px" viewBox="0 0 90.1 99.4" style="enable-background:new 0 0 90.1 99.4;" xml:space="preserve">
<g>
	<path style="fill:#232323;" d="M12.8,29.2"/>
	<path style="fill:#FFFFFF;stroke:#000000;stroke-width:3;stroke-miterlimit:10;" d="M78.1,29.4c-11.3-8.6-26.6-0.5-32.6,7.1
		c-6.5-8.1-21.3-16.2-32.6-7.3C2.3,38.8,0.2,55.7,2.6,66.9c5.9,26.9,33.3,31,43.3,31c26.4,0,41.5-16.4,42.6-35.1
		C89.3,49.1,86.3,36,78.1,29.4z"/>
</g>
<g>
	<g>
		<path d="M60.7,49.3c0,8.7,0,17.4,0,26.1c0,1.9,3,1.9,3,0c0-8.7,0-17.4,0-26.1C63.7,47.4,60.7,47.4,60.7,49.3L60.7,49.3z"/>
	</g>
</g>
<g>
	<g>
		<path d="M27.8,49.3c0,8.7,0,17.4,0,26.1c0,1.9,3,1.9,3,0c0-8.7,0-17.4,0-26.1C30.8,47.4,27.8,47.4,27.8,49.3L27.8,49.3z"/>
	</g>
</g>
<g style="display:none;">
	<g style="display:inline;">
		<path style="fill:#F26B1D;" d="M82.6,40.2c-0.1,11.6-5.5,22.5-14.7,29.5c-9.3,7.1-21.5,9.1-32.7,6c-10.9-3.1-19.9-11.5-24.1-22
			c-4.3-10.8-3-23.2,3.1-33.1C22.8,6.6,40.3,0.3,56,4.7C71.7,9.1,82.4,24.1,82.6,40.2c0,1.9,3,1.9,3,0C85.4,17.5,66.2-0.7,43.5,0.3
			C20.8,1.3,3.6,22,5.8,44.4c2.1,21,21,36.7,41.9,35.8c21.1-0.9,37.7-19.1,37.9-39.9C85.6,38.3,82.6,38.3,82.6,40.2z"/>
	</g>
</g>
</svg>
